<?xml version="1.0" encoding="utf-8"?>
<!-- Generator: Adobe Illustrator 18.1.1, SVG Export Plug-In . SVG Version: 6.00 Build 0)  -->
<!DOCTYPE svg PUBLIC "-//W3C//DTD SVG 1.1//EN" "http://www.w3.org/Graphics/SVG/1.1/DTD/svg11.dtd">
<svg version="1.1" id="Layer_1" xmlns="http://www.w3.org/2000/svg" xmlns:xlink="http://www.w3.org/1999/xlink" x="0px" y="0px"
	 viewBox="-263 737 20 20" enable-background="new -263 737 20 20" xml:space="preserve">
<g id="_x23_020201ff">
	<path fill="#FFFFFF" d="M-254.6,738c0.8-0.7,1.9-1,2.9-1c1.1,0,2.2,0,3.3,0c0,1.2,0,2.3,0,3.5c-0.7,0-1.4,0-2.1,0
		c-0.5,0-0.9,0.3-1,0.8c0,0.8,0,1.6,0,2.3c1,0,2.1,0,3.1,0c-0.1,1.1-0.2,2.3-0.4,3.4c-0.9,0-1.9,0-2.8,0c0,3.3,0,6.7,0,10
		c-1.4,0-2.8,0-4.1,0c0-3.3,0-6.7,0-10c-0.7,0-1.3,0-2,0c0-1.1,0-2.2,0-3.4c0.7,0,1.3,0,2,0c0-1.1,0-2.2,0-3.3
		C-255.6,739.5-255.2,738.6-254.6,738z"/>
</g>
</svg>
