<?xml version="1.0" encoding="utf-8"?>
<!-- Generator: Adobe Illustrator 18.1.1, SVG Export Plug-In . SVG Version: 6.00 Build 0)  -->
<!DOCTYPE svg PUBLIC "-//W3C//DTD SVG 1.1//EN" "http://www.w3.org/Graphics/SVG/1.1/DTD/svg11.dtd">
<svg version="1.1" id="Layer_1" xmlns="http://www.w3.org/2000/svg" xmlns:xlink="http://www.w3.org/1999/xlink" x="0px" y="0px"
	 viewBox="91 491 20 20" enable-background="new 91 491 20 20" xml:space="preserve">
<g transform="translate(0.000000,600.000000) scale(0.100000,-0.100000)">
	<path fill="#FFFFFF" d="M926.9,1066.3c-6.3-1.4-12.1-6-14.9-12c-2.1-4.5-2-2.1-1.9-60.1l0.1-52.8l0.9-2.7
		c2.7-7.9,9.2-13.3,17.5-14.5c1.9-0.3,24.9-0.3,83.5-0.3l80.9,0.1l2.4,0.9c6.7,2.4,11.5,7.2,13.6,13.7l0.9,2.7l0.1,54
		c0.1,59.4,0.2,55.1-2,59.6c-1.2,2.4-4.2,6.1-6.3,7.6c-0.8,0.6-2.5,1.6-3.7,2.1c-4.6,2.3,1.3,2.1-88,2.1
		C939.9,1066.8,928.9,1066.7,926.9,1066.3z M1050.8,1016.7l-38.8-38.8h-1.5h-1.5l-38.8,38.8l-38.8,38.8h79.2h79.2L1050.8,1016.7z
		 M1099.4,986.8l-0.1-44.5l-0.8-1.9c-0.8-2.1-2.8-4.2-4.7-4.9l-1.2-0.5l-26.9,27.1l-27,27.1l30.3,30.3l30.3,30.3l0.1-9.2
		C1099.4,1035.5,1099.4,1011.3,1099.4,986.8z M959.3,967.5C947,955.1,934.7,942.8,932,940l-4.9-5l-0.9,0.5c-1.2,0.6-2.5,2.1-3.3,3.6
		c-0.6,1.1-0.6,3.2-0.7,55.8l-0.1,54.7l29.8-29.8l29.8-29.8L959.3,967.5z M999.1,972.7c5.1-5.2,9.8-9.7,10.3-9.9
		c2-0.7,2.5-0.3,12.4,9.5l9.4,9.4l23.6-23.6l23.6-23.6h-68.3h-68.3l23.8,23.8c13.1,13.1,23.9,23.8,24,23.8
		C989.6,982.2,993.9,977.9,999.1,972.7z"/>
</g>
</svg>
