<?xml version="1.0" encoding="utf-8"?>
<!-- Generator: Adobe Illustrator 18.1.1, SVG Export Plug-In . SVG Version: 6.00 Build 0)  -->
<!DOCTYPE svg PUBLIC "-//W3C//DTD SVG 1.1//EN" "http://www.w3.org/Graphics/SVG/1.1/DTD/svg11.dtd">
<svg version="1.1" id="Layer_1" xmlns="http://www.w3.org/2000/svg" xmlns:xlink="http://www.w3.org/1999/xlink" x="0px" y="0px"
	 viewBox="428.8 490 20 20" enable-background="new 428.8 490 20 20" xml:space="preserve">
<path fill="#FFFFFF" d="M428.8,506c0,0.1,0.1,0.2,0.2,0.3c0.2,0.1,0.5,0.3,0.9,0.5c1.7,0.9,3.5,1.3,5.3,1.3c2.3,0,4.4-0.6,6.3-1.8
	c0.9-0.6,1.7-1.3,2.4-2.1s1.3-1.6,1.7-2.5c0.4-0.9,0.7-1.7,0.9-2.6s0.3-1.7,0.3-2.6v-0.4c0.8-0.6,1.4-1.2,1.9-2
	c0-0.1,0.1-0.1,0.1-0.2c0-0.1,0-0.2-0.1-0.2c-0.1-0.1-0.1-0.1-0.2-0.1c0,0-0.1,0-0.2,0.1c-0.1,0-0.2,0.1-0.3,0.1
	c-0.1,0-0.2,0.1-0.3,0.1c-0.1,0-0.1,0.1-0.2,0.1c0.2-0.2,0.4-0.5,0.6-0.8c0.2-0.3,0.3-0.6,0.3-0.8c0-0.1,0-0.2-0.1-0.2
	c-0.1-0.1-0.2-0.1-0.2-0.1c-0.1,0-0.1,0-0.2,0.1c-0.8,0.4-1.5,0.7-2.2,0.9c-0.8-0.8-1.8-1.2-3-1.2c-1.2,0-2.2,0.4-3.1,1.2
	c-0.8,0.8-1.3,1.8-1.3,3c0,0.2,0,0.4,0,0.5c-1.2-0.1-2.3-0.4-3.4-0.8c-1.1-0.5-2.1-1.1-2.9-1.9c-0.2-0.2-0.6-0.6-1.2-1.2
	c-0.1-0.1-0.2-0.1-0.3-0.1c-0.1,0-0.2,0.1-0.3,0.2c-0.2,0.3-0.3,0.6-0.4,1s-0.2,0.8-0.2,1.2c0,1,0.3,1.9,1,2.7l-0.3-0.1
	c-0.2-0.1-0.3-0.1-0.4-0.1c-0.1,0-0.2,0-0.3,0.1s-0.1,0.2-0.1,0.3c0,0.7,0.2,1.4,0.6,2.1s0.9,1.2,1.5,1.6l-0.1,0c0,0,0,0-0.1,0
	s0,0-0.1,0s0,0,0,0c-0.1,0-0.2,0-0.2,0.1c-0.1,0.1-0.1,0.1-0.1,0.2c0,0,0,0,0,0.1c0.2,0.7,0.6,1.3,1.2,1.8s1.2,0.8,1.9,1
	c-1.2,0.7-2.5,1.1-4,1.1c-0.1,0-0.3,0-0.5,0c-0.3,0-0.5,0-0.5,0c-0.1,0-0.2,0-0.2,0.1C428.8,505.8,428.8,505.9,428.8,506L428.8,506z
	"/>
</svg>
