<svg xmlns="http://www.w3.org/2000/svg" viewBox="91 491 20 20" enable-background="new 91 491 20 20"><path fill="#fff" d="M92.69 493.37c-.63.14-1.21.6-1.49 1.2-.21.45-.2.21-.19 6.01l.01 5.28.09.27c.27.79.92 1.33 1.75 1.45.19.03 2.49.03 8.35.03l8.09-.01.24-.09c.67-.24 1.15-.72 1.36-1.37l.09-.27.01-5.4c.01-5.94.02-5.51-.2-5.96-.12-.24-.42-.61-.63-.76-.08-.06-.25-.16-.37-.21-.46-.23.13-.21-8.8-.21-7.01-.01-8.11 0-8.31.04zm12.39 4.96l-3.88 3.88h-.3l-3.88-3.88-3.88-3.88h15.84l-3.9 3.88zm4.86 2.99l-.01 4.45-.08.19c-.08.21-.28.42-.47.49l-.12.05-2.69-2.71-2.7-2.71 3.03-3.03 3.03-3.03.01.92v5.38zm-14.01 1.93c-1.23 1.24-2.46 2.47-2.73 2.75l-.49.5-.09-.05c-.12-.06-.25-.21-.33-.36-.06-.11-.06-.32-.07-5.58l-.01-5.47 2.98 2.98 2.98 2.98-2.24 2.25zm3.98-.52c.51.52.98.97 1.03.99.2.07.25.03 1.24-.95l.94-.94 2.36 2.36 2.36 2.36H94.18l2.38-2.38c1.31-1.31 2.39-2.38 2.4-2.38 0-.01.43.42.95.94z"/></svg>