<svg xmlns="http://www.w3.org/2000/svg" viewBox="428.8 490 20 20"><path fill="#FFF" d="M428.8 506c0 .1.1.2.2.3.2.1.5.3.9.5 1.7.9 3.5 1.3 5.3 1.3 2.3 0 4.4-.6 6.3-1.8.9-.6 1.7-1.3 2.4-2.1s1.3-1.6 1.7-2.5c.4-.9.7-1.7.9-2.6s.3-1.7.3-2.6v-.4c.8-.6 1.4-1.2 1.9-2 0-.1.1-.1.1-.2s0-.2-.1-.2c-.1-.1-.1-.1-.2-.1 0 0-.1 0-.2.1-.1 0-.2.1-.3.1-.1 0-.2.1-.3.1-.1 0-.1.1-.2.1.2-.2.4-.5.6-.8.2-.3.3-.6.3-.8 0-.1 0-.2-.1-.2-.1-.1-.2-.1-.2-.1-.1 0-.1 0-.2.1-.8.4-1.5.7-2.2.9-.8-.8-1.8-1.2-3-1.2s-2.2.4-3.1 1.2c-.8.8-1.3 1.8-1.3 3v.5c-1.2-.1-2.3-.4-3.4-.8-1.1-.5-2.1-1.1-2.9-1.9l-1.2-1.2c-.1-.1-.2-.1-.3-.1-.1 0-.2.1-.3.2-.2.3-.3.6-.4 1s-.2.8-.2 1.2c0 1 .3 1.9 1 2.7l-.3-.1c-.2-.1-.3-.1-.4-.1-.1 0-.2 0-.3.1s-.1.2-.1.3c0 .7.2 1.4.6 2.1s.9 1.2 1.5 1.6h-.1-.1-.1c-.1 0-.2 0-.2.1-.1.1-.1.1-.1.2v.1c.2.7.6 1.3 1.2 1.8s1.2.8 1.9 1c-1.2.7-2.5 1.1-4 1.1h-1c-.1 0-.2 0-.2.1-.1-.2-.1-.1-.1 0z"/></svg>